<svg xmlns="http://www.w3.org/2000/svg" viewBox="0 0 128 160" x="0px" y="0px"><g><path d="M123.908,75.029A20.689,20.689,0,0,1,114.6,94.345a27.006,27.006,0,0,1-3.745,2.049,8.806,8.806,0,0,1-1.825,2.641,33.4,33.4,0,0,1-16.54,8.378c-2.608,4.737-7.914,9.29-13.3,10.13-4.953.776-11.539-3.2-14.148-8.018a11.682,11.682,0,0,1-2.632.872,14.409,14.409,0,0,1-11.267-2.736,12.22,12.22,0,0,1-5.833.632c-.745-.088-1.865-.248-3.081-.512-2.481,11.6-26.687,14.211-35.249,12.723a1.037,1.037,0,0,1-.656-.368c-.1.032-.208.064-.3.1a1.2,1.2,0,0,1-.64-2.313A32.4,32.4,0,0,0,23.859,104.14C17.626,99.155,11.84,94.626,10.792,86.2a22.663,22.663,0,0,1,.7-9.354,22.717,22.717,0,0,1-5.833-7.778C2.894,62.938,3.446,54.184,8.383,49.238a16.136,16.136,0,0,1,2.7-2.208,7.768,7.768,0,0,1-1.16-1.3c-2.185-3.32-1.969-7.529-.544-11.114,2.776-7.026,10.594-16.6,19.14-16.508A13.1,13.1,0,0,1,33.43,14.23c4.361-2.089,10.61-4.161,15.467-2.713a46.7,46.7,0,0,1,9.859,3.993c1.784-5.081,6.57-8.218,12.163-8.314,5.273-.088,10.6,2.473,11.891,7.666,6.161-2.3,13.091-.6,18.228,3.473a22.4,22.4,0,0,1,8.8,15.452,12.882,12.882,0,0,1,6.129,4.233c3.889,5.129,5.617,11.954,6.226,18.284.392,4.121.6,9.01-1.129,12.755A9.9,9.9,0,0,1,123.908,75.029Zm-2.889,6.593c.744-3.409.944-7.81-1.184-10.538a9.51,9.51,0,0,1-4.665,3.144c-2.257.729-4.593.785-5.9-1.472-1.008-1.744-.368-5.009,1.593-5.9a8.66,8.66,0,0,1,8.362.72,7.194,7.194,0,0,0,.384-1.1c1-4.057.544-8.611-.168-12.7-.928-5.289-3.233-15.7-9.466-17.62.056,4.769-1.169,10.891-7.2,10.139-5.922-.745-3.441-8.458-.664-11.139a6.759,6.759,0,0,1,5.209-1.849c-1.448-8.69-8.514-16.668-17.813-17.116a15.064,15.064,0,0,0-6.393,1.064c.04,3.5-1.128,9.787-5.738,6.57-4.377-3.065-.2-6.225,3.169-7.962-.9-3.9-4.5-6.353-8.7-6.281-3.545.064-8.986,1.456-10.37,5.241-.232.616-.457,1.3-.665,2.016a16.556,16.556,0,0,1,2.545,2.209c2.417,2.609,2.545,8.226-2.345,8.3-4.041.064-3.552-5.866-2.912-9.258-3.9-2.457-8.818-4.858-13.268-4.5-3.344.272-10.09,1.8-13.651,4.889,3.665,1.112,7.818,5.241,6.994,9.234-1.168,5.7-8.794,3.625-10.571-.584a9.08,9.08,0,0,1-.44-6.426c-.1.024-.216.04-.328.064-5.209,1.3-9.754,5.394-12.651,9.8-2.457,3.729-5.353,9.77-2.193,13.947a7.911,7.911,0,0,0,1.393,1.392,11.02,11.02,0,0,1,4.321-.584c1.792.1,2.248,1.721,1.736,3.2-.944,2.7-3.969,1.681-6.4.056A8.762,8.762,0,0,0,10.816,50.2,15.551,15.551,0,0,0,6.7,64.218a18.067,18.067,0,0,0,5.962,10.243,5.61,5.61,0,0,1,4.505-2.473c1.608-.072,5.049.56,4.8,2.937-.208,2.1-1.969,4.345-4.249,4.425a8.2,8.2,0,0,1-4.2-1.121,9.436,9.436,0,0,0-.24.961c-.729,3.753-.592,9.218,1.456,12.611,2.857,4.721,7.322,7.834,11.547,11.227a1.186,1.186,0,0,1,.192,1.448,34.557,34.557,0,0,1-15.82,14.043,48.481,48.481,0,0,0,14.067-1.456c4.282-1.072,9.491-2.745,12.652-6.033a7.715,7.715,0,0,0,2.24-3.977c-1.992-.7-3.729-1.785-4.009-3.417-.568-3.321,5.081-4.985,6.2-1.545a12.362,12.362,0,0,1,.616,3.217,13.682,13.682,0,0,0,6.922.448,7.8,7.8,0,0,1-1.449-4.145A3.554,3.554,0,0,1,52.1,98c2.185.6,2.609,3.505,2.441,5.386a4.686,4.686,0,0,1-1.224,2.832c2.936,1.873,6.889,2.689,10.082,1.361.232-.1.488-.216.752-.344a8.056,8.056,0,0,1-.184-.873c-.232-1.784.256-12.211,4.529-7.962,3.537,3.513,1.937,7.37-1.224,9.779a12.818,12.818,0,0,0,6.33,5.809c3.921,1.785,7.057,1.257,10.5-1.144a22.036,22.036,0,0,0,5.474-5.161q-.626.012-1.225-.024c-2.584-.16-5.761-1.161-6.113-4.217-.336-3,1.544-5.09,4.385-5.778,4.473-1.072,7.13,3.009,6.825,6.786,4.586-1.184,10.731-3.593,13.916-6.882a12.827,12.827,0,0,1-4.273.288c-2.737-.3-7.09-1.248-8.41-4.081-2.705-5.817,5.249-10.578,10.37-9.106a8.851,8.851,0,0,1,6.506,8.73C116.026,90.8,119.9,86.824,121.019,81.622ZM118,69.5a7.183,7.183,0,0,0-2.057-.744c-1.424-.3-4.857-.776-4.681,1.785.152,2.36,2.1,1.856,3.273,1.376A9.225,9.225,0,0,0,118,69.5ZM109.28,94.481a5.346,5.346,0,0,0-.72-4.377,6.416,6.416,0,0,0-7.442-3.024c-1.624.528-6.961,3.368-3.993,5.961C100.47,95.97,105.255,96.01,109.28,94.481Zm-4.689-50.524c3-.9,3.169-5.233,3-8.1-2.337.048-4.313.76-5.377,3.065C101.334,40.836,100.942,45.053,104.591,43.957ZM90.956,105c.5-1.544.464-3.273-1.2-4.193-5.082-2.841-6.138,3.729-2.905,4.281a9.421,9.421,0,0,0,2.464.152C89.78,105.2,90.34,105.116,90.956,105ZM80.417,21.215a11.312,11.312,0,0,0,.36-2.832c-.264.152-.528.3-.784.472a7.235,7.235,0,0,0-1.808,1.408C77.409,21.239,79.873,23.248,80.417,21.215ZM66.438,105.788c1.688-1.376,2.8-3.257.84-5.209-.936-.928-1.08,2.6-1.08,3.009A10.414,10.414,0,0,0,66.438,105.788ZM60.316,24.032c.552,1.881,3-.3,2.481-1.64a7.045,7.045,0,0,0-2.585-2.905A10.546,10.546,0,0,0,60.316,24.032Zm-8.234,79.54a4.363,4.363,0,0,0-.064-2.313c-1.416,1.288-1.608,2.441-.6,3.473A2.216,2.216,0,0,0,52.082,103.572Zm-12.291.656c-.08-1.136-.456-2.129-1.744-1.184C37.839,103.2,38.767,103.724,39.791,104.228Zm-6.3-75.371c1.448-.048,2.864-.824,2.224-2.64a9.471,9.471,0,0,0-2.576-4.049,6.714,6.714,0,0,0-3.705-1.585,5.366,5.366,0,0,0,.24,5.33C30.429,27.321,31.685,28.905,33.494,28.857ZM18.722,76.349c-.232-.664-.472-1.328-.7-1.992a4.441,4.441,0,0,0-3.337,1.688,5.367,5.367,0,0,0,.84.456A2.818,2.818,0,0,0,18.722,76.349Z"/></g><text x="0" y="143" fill="#000000" font-size="5px" font-weight="bold" font-family="'Helvetica Neue', Helvetica, Arial-Unicode, Arial, Sans-serif">Created by Hey Rabbit</text><text x="0" y="148" fill="#000000" font-size="5px" font-weight="bold" font-family="'Helvetica Neue', Helvetica, Arial-Unicode, Arial, Sans-serif">from the Noun Project</text></svg>